<?xml version="1.0" encoding="utf-8"?>
<!-- Generator: Adobe Illustrator 22.0.1, SVG Export Plug-In . SVG Version: 6.00 Build 0)  -->
<svg version="1.1" xmlns="http://www.w3.org/2000/svg" xmlns:xlink="http://www.w3.org/1999/xlink" x="0px" y="0px"
	 viewBox="0 0 1024 1024" style="enable-background:new 0 0 1024 1024;" xml:space="preserve">
<style type="text/css">
	.st0{display:none;}
	.st1{display:inline;fill:#00BECC;}
	.st2{fill:#FFFFFF;}
	.st3{fill:#00FFFF;}
	.st4{display:inline;fill:#FFFFFF;}
	.st5{display:inline;fill:none;stroke:url(#SVGID_1_);stroke-miterlimit:10;}
</style>
<g id="background" class="st0">
	<rect x="-0.1" y="0.4" class="st1" width="1024" height="1024"/>
</g>
<g id="bars">
	<path class="st2" d="M2.9,620.4"/>
</g>
<g id="Layer_6">
	<g>
		<polyline class="st3" points="481.7,811.8 419,895.3 249.8,521 313.4,438.1 		"/>
		<g>
			<polygon class="st2" points="774.2,245.4 531.7,846.9 419.1,898.1 708.2,125.9 			"/>
		</g>
	</g>
</g>
<g id="bars_2" class="st0">
	<polygon class="st4" points="146.9,659.4 146.9,796.4 249.9,855.4 249.9,719.4 	"/>
	<polyline class="st4" points="249.9,808.4 249.9,450.4 352.9,510.4 352.9,868.4 	"/>
	<polyline class="st4" points="366.9,807.4 469.9,868.4 470.9,441.4 366.9,382.4 	"/>
	<polyline class="st4" points="470.9,807.4 573.9,868.4 574.9,305.4 470.9,246.4 	"/>
	<polyline class="st4" points="603.9,764.4 706.9,825.4 714.9,156.4 610.9,97.4 	"/>
	<line class="st4" x1="932.9" y1="813.4" x2="950.9" y2="817.4"/>
	<path class="st4" d="M79.9,809.4"/>
</g>
<g id="Circle" class="st0">
	<linearGradient id="SVGID_1_" gradientUnits="userSpaceOnUse" x1="512.426" y1="-25.0691" x2="512.426" y2="1046.9309">
		<stop  offset="0.2056" style="stop-color:#2D45F9"/>
		<stop  offset="0.5157" style="stop-color:#1E6DEA"/>
		<stop  offset="0.726" style="stop-color:#1683E2"/>
	</linearGradient>
	<circle class="st5" cx="512.4" cy="510.9" r="535.5"/>
</g>
</svg>
