<svg id="Layer_1" data-name="Layer 1" xmlns="http://www.w3.org/2000/svg" viewBox="0 0 268.43 80.32"><defs><style>.cls-1{fill:#fff;}.cls-2{fill:#09192d;}.cls-3{fill:#28ddd8;}.cls-4{fill:#ed5267;}</style></defs><title>new_logo</title><path class="cls-1" d="M37.43,51.73" transform="translate(-10.34 -4.21)"/><polyline class="cls-2" points="63.22 38.66 58.89 29.5 68.05 31.66"/><polyline class="cls-3" points="84.49 69.29 76.09 80.3 59.73 43.64 68.06 31.64"/><polygon class="cls-4" points="112.39 20.33 88.14 75.43 76.05 80.32 111.81 0 112.39 20.33"/><path class="cls-2" d="M14.14,26.89a3.67,3.67,0,0,1-2.7-1.1,3.57,3.57,0,0,1-1.1-2.62,3.46,3.46,0,0,1,1.1-2.59,3.72,3.72,0,0,1,2.7-1.06,3.81,3.81,0,0,1,2.7,1,3.34,3.34,0,0,1,1.09,2.55,3.7,3.7,0,0,1-1.06,2.7A3.62,3.62,0,0,1,14.14,26.89ZM11.51,73.67V35.36h5.18V73.67Z" transform="translate(-10.34 -4.21)"/><path class="cls-2" d="M50.7,35a18,18,0,0,1,8.21,1.79,12.83,12.83,0,0,1,5.55,5.44,18.86,18.86,0,0,1,2,9.19V73.67H61.28V51.92q0-6.06-3-9.16c-2-2.06-4.86-3.1-8.51-3.1a14.75,14.75,0,0,0-7.11,1.64A11.26,11.26,0,0,0,38,46.05a15.74,15.74,0,0,0-1.65,7.48V73.67H31.14V35.36h5V45.87l-.8-2a14,14,0,0,1,5.84-6.53A18.47,18.47,0,0,1,50.7,35Z" transform="translate(-10.34 -4.21)"/><path class="cls-2" d="M121.35,26.89a3.67,3.67,0,0,1-2.7-1.1,3.57,3.57,0,0,1-1.1-2.62,3.46,3.46,0,0,1,1.1-2.59,3.72,3.72,0,0,1,2.7-1.06,3.81,3.81,0,0,1,2.7,1,3.34,3.34,0,0,1,1.09,2.55,3.7,3.7,0,0,1-1.06,2.7A3.62,3.62,0,0,1,121.35,26.89Zm-2.63,46.78V35.36h5.18V73.67Z" transform="translate(-10.34 -4.21)"/><path class="cls-2" d="M148.64,74a29.33,29.33,0,0,1-9-1.35,19.13,19.13,0,0,1-6.65-3.4l2.34-4.08a22.38,22.38,0,0,0,6,3A22.87,22.87,0,0,0,149,69.51c3.65,0,6.27-.57,7.88-1.71a5.35,5.35,0,0,0,2.41-4.57A4.23,4.23,0,0,0,158,59.91a8.84,8.84,0,0,0-3.54-1.82A44,44,0,0,0,149.52,57q-2.7-.44-5.37-1a19.59,19.59,0,0,1-4.85-1.72,9.4,9.4,0,0,1-3.54-3.1,9.12,9.12,0,0,1-1.35-5.25,9.56,9.56,0,0,1,1.75-5.62,11.65,11.65,0,0,1,5.15-3.91A21.56,21.56,0,0,1,149.59,35,29,29,0,0,1,157,36a20.38,20.38,0,0,1,6.13,2.59l-2.27,4.16a17.3,17.3,0,0,0-5.47-2.52,23,23,0,0,0-5.84-.77c-3.45,0-6,.6-7.63,1.79a5.42,5.42,0,0,0-2.44,4.56,4.42,4.42,0,0,0,1.35,3.43,9.32,9.32,0,0,0,3.58,1.94,36,36,0,0,0,4.89,1.13c1.77.29,3.55.64,5.32,1.06A24,24,0,0,1,159.55,55a9,9,0,0,1,3.58,3,8.68,8.68,0,0,1,1.35,5.07,9.3,9.3,0,0,1-1.86,5.8,11.9,11.9,0,0,1-5.4,3.8A24.14,24.14,0,0,1,148.64,74Z" transform="translate(-10.34 -4.21)"/><path class="cls-2" d="M168,39.66v-4.3H191.7v4.3ZM186.08,74c-3.6,0-6.37-1-8.32-2.92s-2.92-4.7-2.92-8.25v-36H180V62.58a7.29,7.29,0,0,0,1.72,5.18,6.41,6.41,0,0,0,4.93,1.82,8.33,8.33,0,0,0,5.69-2l1.82,3.73a9.65,9.65,0,0,1-3.68,2A15,15,0,0,1,186.08,74Z" transform="translate(-10.34 -4.21)"/><path class="cls-2" d="M219.43,74a18.85,18.85,0,0,1-8.54-1.83,12.92,12.92,0,0,1-5.65-5.47,18.73,18.73,0,0,1-2-9.12V35.36h5.18V57q0,6.13,3,9.23T220,69.37a14,14,0,0,0,7-1.65,10.86,10.86,0,0,0,4.53-4.78A16.55,16.55,0,0,0,233,55.43V35.36h5.18V73.67h-5V63.16l.8,1.9a14.19,14.19,0,0,1-5.65,6.6A16.6,16.6,0,0,1,219.43,74Z" transform="translate(-10.34 -4.21)"/><path class="cls-2" d="M262.93,74a29.33,29.33,0,0,1-9-1.35,19.13,19.13,0,0,1-6.65-3.4l2.34-4.08a22.38,22.38,0,0,0,6,3,22.87,22.87,0,0,0,7.67,1.28c3.65,0,6.27-.57,7.88-1.71a5.37,5.37,0,0,0,2.41-4.57,4.23,4.23,0,0,0-1.35-3.32,8.84,8.84,0,0,0-3.54-1.82A44,44,0,0,0,263.81,57q-2.7-.44-5.37-1a19.59,19.59,0,0,1-4.85-1.72,9.4,9.4,0,0,1-3.54-3.1,9.12,9.12,0,0,1-1.35-5.25,9.49,9.49,0,0,1,1.75-5.62,11.6,11.6,0,0,1,5.15-3.91A21.56,21.56,0,0,1,263.88,35a28.82,28.82,0,0,1,7.44,1,20.34,20.34,0,0,1,6.14,2.59l-2.27,4.16a17.41,17.41,0,0,0-5.47-2.52,23,23,0,0,0-5.84-.77q-5.19,0-7.63,1.79a5.42,5.42,0,0,0-2.44,4.56,4.42,4.42,0,0,0,1.35,3.43,9.35,9.35,0,0,0,3.57,1.94,36.51,36.51,0,0,0,4.9,1.13c1.77.29,3.55.64,5.32,1.06A24,24,0,0,1,273.84,55a9,9,0,0,1,3.58,3,8.68,8.68,0,0,1,1.35,5.07,9.3,9.3,0,0,1-1.86,5.8,11.9,11.9,0,0,1-5.4,3.8A24.14,24.14,0,0,1,262.93,74Z" transform="translate(-10.34 -4.21)"/></svg>